<svg id="Layer_1" data-name="Layer 1" xmlns="http://www.w3.org/2000/svg" viewBox="0 0 528.43 116.86"><defs><style>.cls-1{fill:#ccb36b;}.cls-2{fill:#203569;}</style></defs><path class="cls-1" d="M44.7,321.51V438.38H188.53V321.51Zm27,107.88h-18v-18h18Zm0-27h-18v-18h18Zm0-27h-18v-18h18Zm0-27h-18v-18h18Zm27,62.93V348.48l45,31.46Zm80.9,18h-18v-18h18Zm0-27h-18v-18h18Zm0-27h-18v-18h18Zm0-27h-18v-18h18Z" transform="translate(-44.7 -321.51)"/><path class="cls-2" d="M259.36,335.32h20.4v89.25h-20.4V384.66l-13,31.36h-6.5l-13-31.36v39.91h-20.4V335.32h20.4L243,374.46Zm59.16,0v89.25h-20.4V335.32Zm71.27,0h20.4v89.25h-20.4V384.66l-13,31.36h-6.51l-13-31.36v39.91h-20.4V335.32h20.4l16.19,39.14Zm86.06,0a15.92,15.92,0,0,1,15.81,15.94v57.37a15.92,15.92,0,0,1-15.81,15.94h-47.3V335.32Zm-4.59,64.51V360.05a4.16,4.16,0,0,0-4.21-4.2H449v48.32h18.1A4.27,4.27,0,0,0,471.26,399.83Zm85.94-64.51a15.94,15.94,0,0,1,15.93,15.94v16.83a11.81,11.81,0,0,1-10.07,11.73l-.76.12.76.13a12,12,0,0,1,10.07,11.73v17a15.92,15.92,0,0,1-15.93,15.81H510V335.32ZM552.73,400v-5.48a4.16,4.16,0,0,0-4.2-4.21H530.42v13.9h18.11A4.25,4.25,0,0,0,552.73,400Zm0-34.42v-5.49a4.24,4.24,0,0,0-4.2-4.2H530.42v13.89h18.11A4.24,4.24,0,0,0,552.73,365.54Z" transform="translate(-44.7 -321.51)"/></svg>