<svg xmlns="http://www.w3.org/2000/svg" viewBox="2.8800000000000026 12 115.03999999999999 28">
  <path d="M 19.48 12 l 6.4 0 l 0 28 l -6.4 0 l 0 -12.52 l -4.08 9.84 l -2.04 0 l -4.08 -9.84 l 0 12.52 l -6.4 0 l 0 -28 l 6.4 0 l 5.08 12.28 z M 38.04 12 l 0 28 l -6.4 0 l 0 -28 l 6.4 0 z M 60.4 12 l 6.4 0 l 0 28 l -6.4 0 l 0 -12.52 l -4.08 9.84 l -2.04 0 l -4.08 -9.84 l 0 12.52 l -6.4 0 l 0 -28 l 6.4 0 l 5.08 12.28 z M 87.4 12 c 2.72 0 4.96 2.24 4.96 5 l 0 18 c 0 2.76 -2.24 5 -4.96 5 l -14.84 0 l 0 -28 l 14.84 0 z M 85.96 32.24 l 0 -12.48 c 0 -0.76 -0.6 -1.32 -1.32 -1.32 l -5.68 0 l 0 15.16 l 5.68 0 c 0.72 0 1.32 -0.6 1.32 -1.36 z M 112.92 12 c 2.76 0 5 2.24 5 5 l 0 5.28 c 0 1.84 -1.32 3.4 -3.16 3.68 l -0.24 0.04 l 0.24 0.04 c 1.84 0.32 3.16 1.88 3.16 3.68 l 0 5.32 c 0 2.72 -2.24 4.96 -5 4.96 l -14.8 0 l 0 -28 l 14.8 0 z M 111.52 32.28 l 0 -1.72 c 0 -0.76 -0.6 -1.32 -1.32 -1.32 l -5.68 0 l 0 4.36 l 5.68 0 c 0.72 0 1.32 -0.6 1.32 -1.32 z M 111.52 21.48 l 0 -1.72 c 0 -0.72 -0.6 -1.32 -1.32 -1.32 l -5.68 0 l 0 4.36 l 5.68 0 c 0.72 0 1.32 -0.6 1.32 -1.32 z M 3 12" fill="#002f6c"/>
</svg>